<svg xmlns="http://www.w3.org/2000/svg" width="512" height="512" viewBox="0 0 512 512" fill="none"><metadata><rdf:RDF xmlns:rdf="http://www.w3.org/1999/02/22-rdf-syntax-ns#" xmlns:dc="http://purl.org/dc/elements/1.1/"><rdf:Description><dc:creator>RealFaviconGenerator</dc:creator><dc:source>https://realfavicongenerator.net</dc:source></rdf:Description></rdf:RDF></metadata><rect width="512" height="512" rx="128" fill="#1A1B1D" style="fill:#1A1B1D;fill:color(display-p3 0.1020 0.1059 0.1137);fill-opacity:1;"></rect><path d="M228.568 241.02C218.642 243.059 208.126 244.161 197.211 244.161C165.082 244.161 136.418 234.616 116.044 219.707C95.6505 204.783 84.2234 185.101 84.2234 164.44C84.2234 143.779 95.6505 124.096 116.044 109.173C136.418 94.2639 165.082 84.7185 197.211 84.7185C229.339 84.7185 258.003 94.2639 278.377 109.173C279.641 110.097 280.869 111.04 282.063 112H310.988C305.085 104.708 298.039 98.0995 290.132 92.3136C265.953 74.6199 233.068 64 197.211 64C161.353 64 128.468 74.6199 104.289 92.3136C80.1295 109.993 64 135.351 64 164.44V290.705C64 325.304 80.1295 354.008 104.289 371.687C127.394 388.595 158.449 399.043 192.45 399.938L197.145 379.282C165.043 379.269 136.404 369.727 116.044 354.828C98.7315 342.159 87.8809 326.061 84.9974 308.845C90.5668 315.395 97.0695 321.364 104.289 326.647C128.468 344.34 161.353 354.96 197.211 354.96C199.046 354.96 200.873 354.932 202.692 354.877L207.456 333.915C204.085 334.131 200.668 334.242 197.211 334.242C165.082 334.242 136.418 324.696 116.044 309.787C98.7315 297.119 87.8809 281.02 84.9974 263.805C90.5668 270.354 97.0695 276.323 104.289 281.606C128.468 299.3 161.353 309.92 197.211 309.92C202.569 309.92 207.861 309.683 213.068 309.22L217.925 287.852C211.223 288.737 204.301 289.202 197.211 289.202C165.082 289.202 136.418 279.656 116.044 264.747C98.7315 252.078 87.8809 235.98 84.9974 218.765C90.5668 225.314 97.0695 231.283 104.289 236.566C128.468 254.26 161.353 264.88 197.211 264.88C206.222 264.88 215.045 264.209 223.59 262.924L228.568 241.02Z" fill="white" style="fill:white;fill-opacity:1;"></path><path fill-rule="evenodd" clip-rule="evenodd" d="M256 464L432 256L352 272L368 224H448L464 128H192L176 224H256L224 368L288 352L256 464ZM249.482 341.839L315.594 325.311L298.97 383.493L381.783 285.624L323.323 297.316L354.161 204.8H431.735L441.335 147.2H208.265L198.665 204.8H279.935L249.482 341.839Z" fill="#FABF2C" style="fill:#FABF2C;fill:color(display-p3 0.9804 0.7490 0.1725);fill-opacity:1;"></path></svg>